# xmcd CD database file
#
# Track frame offsets:
#	150
#	14133
#	40308
#	54025
#	79535
#	96895
#	112963
#	139725
#	157580
#	173028
#	190333
#	200883
#	213700
#	224325
#	247175
#	264368
#	286563
#	302995
#	318725
#	336000
#
# Disc length: 4673 seconds
#
# Revision: 1
# Processed by: cddbd v1.5.1PL2 Copyright (c) Steve Scherf et al.
# Submitted via: CD2WAV32(JP) R3.22
#
DISCID=23123f14
DTITLE=THE STREET BEATS - 20TH ANIVERSARY BEST 1984-2004 DISC2 1994-2004
DYEAR=2004
DGENRE=Rock and Roll
TTITLE0=十代の衝動
TTITLE1=I WANNA CHANGE
TTITLE2=街の灯
TTITLE3=いのちの音
TTITLE4=旅人の詩
TTITLE5=ONE NIGHT STAND
TTITLE6=親愛なる者
TTITLE7=GET TOUGH!
TTITLE8=FIGHT FOR YOURSELF
TTITLE9=INNOCENT DAYS
TTITLE10=GO FOR IT!
TTITLE11=JUNK&PAIN
TTITLE12=狂ったように叫ぶ時
TTITLE13=魂が求めるもの
TTITLE14=RED HOT BLOOD
TTITLE15=叫ばなければ
TTITLE16=SPIRIT OF COMBAT
TTITLE17=TWO BLACK GUITARS
TTITLE18=ALL THE GREAT ROCK'N ROLL
TTITLE19=拳を握って立つ男
EXTD=
EXTT0=
EXTT1=
EXTT2=
EXTT3=
EXTT4=
EXTT5=
EXTT6=
EXTT7=
EXTT8=
EXTT9=
EXTT10=
EXTT11=
EXTT12=
EXTT13=
EXTT14=
EXTT15=
EXTT16=
EXTT17=
EXTT18=
EXTT19=
PLAYORDER=
